<svg width="84" height="86" viewBox="0 0 84 86" fill="none" xmlns="http://www.w3.org/2000/svg">
<circle cx="42" cy="83.107" r="2.47059" transform="rotate(-180 42 83.107)" fill="#FFB5A6"/>
<circle cx="29.1531" cy="81.1305" r="2.47059" transform="rotate(-180 29.1531 81.1305)" fill="#FFB5A6"/>
<circle cx="19.27" cy="76.19" r="2.47059" transform="rotate(-180 19.27 76.19)" fill="#FFB5A6"/>
<circle cx="11.3641" cy="69.2716" r="2.47059" transform="rotate(-180 11.3641 69.2716)" fill="#FFB5A6"/>
<circle cx="5.43541" cy="60.378" r="2.47059" transform="rotate(-180 5.43541 60.378)" fill="#FFB5A6"/>
<circle cx="2.47063" cy="49.5069" r="2.47059" transform="rotate(-180 2.47063 49.5069)" fill="#FFB5A6"/>
<circle cx="2.47063" cy="37.6481" r="2.47059" transform="rotate(-180 2.47063 37.6481)" fill="#FFB5A6"/>
<circle cx="5.43541" cy="26.777" r="2.47059" transform="rotate(-180 5.43541 26.777)" fill="#FFB5A6"/>
<circle cx="11.3641" cy="18.8712" r="2.47059" transform="rotate(-180 11.3641 18.8712)" fill="#FFB5A6"/>
<circle cx="19.27" cy="10.9654" r="2.47059" transform="rotate(-180 19.27 10.9654)" fill="#FFB5A6"/>
<circle cx="29.1531" cy="6.02452" r="2.47059" transform="rotate(-180 29.1531 6.02452)" fill="#FFB5A6"/>
<circle cx="42" cy="3.05919" r="2.47059" transform="rotate(-180 42 3.05919)" fill="#FFB5A6"/>
<circle cx="54.847" cy="6.02452" r="2.47059" transform="rotate(-180 54.847 6.02452)" fill="#FFB5A6"/>
<circle cx="65.7176" cy="10.9654" r="2.47059" transform="rotate(-180 65.7176 10.9654)" fill="#FFB5A6"/>
<circle cx="72.6349" cy="18.8712" r="2.47059" transform="rotate(-180 72.6349 18.8712)" fill="#FFB5A6"/>
<circle cx="78.5646" cy="26.777" r="2.47059" transform="rotate(-180 78.5646 26.777)" fill="#FFB5A6"/>
<circle cx="81.5294" cy="37.6481" r="2.47059" transform="rotate(-180 81.5294 37.6481)" fill="#FFB5A6"/>
<circle cx="81.5294" cy="49.5069" r="2.47059" transform="rotate(-180 81.5294 49.5069)" fill="#FFB5A6"/>
<circle cx="78.5646" cy="60.378" r="2.47059" transform="rotate(-180 78.5646 60.378)" fill="#FFB5A6"/>
<circle cx="72.6349" cy="70.2604" r="2.47059" transform="rotate(-180 72.6349 70.2604)" fill="#FFB5A6"/>
<circle cx="64.729" cy="76.19" r="2.47059" transform="rotate(-180 64.729 76.19)" fill="#FFB5A6"/>
<circle cx="53.8583" cy="81.1305" r="2.47059" transform="rotate(-180 53.8583 81.1305)" fill="#FFB5A6"/>
</svg>
