<svg width="177" height="179" viewBox="0 0 177 179" fill="none" xmlns="http://www.w3.org/2000/svg">
<circle cx="88.459" cy="173.797" r="5.20348" transform="rotate(-180 88.459 173.797)" fill="#FFB5A6"/>
<circle cx="61.4013" cy="169.634" r="5.20348" transform="rotate(-180 61.4013 169.634)" fill="#FFB5A6"/>
<circle cx="40.5859" cy="159.228" r="5.20348" transform="rotate(-180 40.5859 159.228)" fill="#FFB5A6"/>
<circle cx="23.9348" cy="144.656" r="5.20348" transform="rotate(-180 23.9348 144.656)" fill="#FFB5A6"/>
<circle cx="11.4479" cy="125.925" r="5.20348" transform="rotate(-180 11.4479 125.925)" fill="#FFB5A6"/>
<circle cx="5.20356" cy="103.03" r="5.20348" transform="rotate(-180 5.20356 103.03)" fill="#FFB5A6"/>
<circle cx="5.20356" cy="78.0524" r="5.20348" transform="rotate(-180 5.20356 78.0524)" fill="#FFB5A6"/>
<circle cx="11.4479" cy="55.1569" r="5.20348" transform="rotate(-180 11.4479 55.1569)" fill="#FFB5A6"/>
<circle cx="23.9348" cy="38.5055" r="5.20348" transform="rotate(-180 23.9348 38.5055)" fill="#FFB5A6"/>
<circle cx="40.5859" cy="21.8546" r="5.20348" transform="rotate(-180 40.5859 21.8546)" fill="#FFB5A6"/>
<circle cx="61.4013" cy="11.4479" r="5.20348" transform="rotate(-180 61.4013 11.4479)" fill="#FFB5A6"/>
<circle cx="88.459" cy="5.20326" r="5.20348" transform="rotate(-180 88.459 5.20326)" fill="#FFB5A6"/>
<circle cx="115.517" cy="11.4479" r="5.20348" transform="rotate(-180 115.517 11.4479)" fill="#FFB5A6"/>
<circle cx="138.412" cy="21.8546" r="5.20348" transform="rotate(-180 138.412 21.8546)" fill="#FFB5A6"/>
<circle cx="152.981" cy="38.5055" r="5.20348" transform="rotate(-180 152.981 38.5055)" fill="#FFB5A6"/>
<circle cx="165.47" cy="55.1569" r="5.20348" transform="rotate(-180 165.47 55.1569)" fill="#FFB5A6"/>
<circle cx="171.714" cy="78.0524" r="5.20348" transform="rotate(-180 171.714 78.0524)" fill="#FFB5A6"/>
<circle cx="171.714" cy="103.03" r="5.20348" transform="rotate(-180 171.714 103.03)" fill="#FFB5A6"/>
<circle cx="165.47" cy="125.925" r="5.20348" transform="rotate(-180 165.47 125.925)" fill="#FFB5A6"/>
<circle cx="152.981" cy="146.739" r="5.20348" transform="rotate(-180 152.981 146.739)" fill="#FFB5A6"/>
<circle cx="136.33" cy="159.228" r="5.20348" transform="rotate(-180 136.33 159.228)" fill="#FFB5A6"/>
<circle cx="113.435" cy="169.634" r="5.20348" transform="rotate(-180 113.435 169.634)" fill="#FFB5A6"/>
</svg>
